<svg width="300" height="300" xmlns="http://www.w3.org/2000/svg" data-name="Layer 1">

 <g>
  <title>Layer 1</title>
  <path fill-opacity="0" stroke="#000000" stroke-width="5" id="svg_2" fill="#ffffff" d="m232.845,5.505l-159.31,0a22.3,22.3 0 0 0 -22.3,22.3l0,36.56l24.69,-0.44a16,16 0 0 1 0.57,32l-25.26,0.45l0,37.42l24.69,-0.44a16,16 0 0 1 16.28,15.71l0,0a16,16 0 0 1 -15.71,16.28l-25.26,0.45l0,37.42l24.69,-0.44a16,16 0 0 1 16.28,15.7l0,0a16,16 0 0 1 -15.71,16.28l-25.26,0.45l0,37a22.29,22.29 0 0 0 22.3,22.29l159.31,0a22.29,22.29 0 0 0 22.3,-22.29l0,-244.4a22.3,22.3 0 0 0 -22.3,-22.3z" class="cls-2"/>
  <rect id="svg_3" fill="#000000" rx="10.89" height="21.79" width="71.32" y="69.22501" x="15.575" class="cls-2"/>
  <rect id="svg_4" fill="#000000" rx="10.89" height="21.79" width="71.32" y="138.90501" x="15.575" class="cls-2"/>
  <rect id="svg_5" fill="#000000" rx="10.89" height="21.79" width="71.32" y="208.30501" x="15.575" class="cls-2"/>
  <path id="svg_6" fill="#000000" d="m270.195,33.33501l-7.88,0l0,11.3l2.7,0a8.2,8.2 0 0 1 8.43,7.95l0,15.25a8.2,8.2 0 0 1 -8.43,7.95l-2.7,0l0,10.66l7.88,0c7.86,0 14.23,-6 14.23,-13.41l0,-26.29c0,-7.41 -6.37,-13.41 -14.23,-13.41z" class="cls-2"/>
  <path id="svg_7" fill="#000000" d="m270.195,93.76501l-7.88,0l0,11.3l2.7,0a8.19,8.19 0 0 1 8.43,7.94l0,15.26a8.19,8.19 0 0 1 -8.43,7.94l-2.7,0l0,10.66l7.88,0c7.86,0 14.23,-6 14.23,-13.4l0,-26.3c0,-7.4 -6.37,-13.4 -14.23,-13.4z" class="cls-2"/>
  <path id="svg_8" fill="#000000" d="m270.195,153.33501l-7.88,0l0,11.3l2.7,0a8.2,8.2 0 0 1 8.43,7.95l0,15.25a8.2,8.2 0 0 1 -8.43,7.95l-2.7,0l0,10.66l7.88,0c7.86,0 14.23,-6 14.23,-13.41l0,-26.29c0,-7.41 -6.37,-13.41 -14.23,-13.41z" class="cls-2"/>
  <path id="svg_9" fill="#000000" d="m270.195,213.59501l-7.88,0l0,11.3l2.7,0a8.19,8.19 0 0 1 8.43,7.94l0,15.26a8.19,8.19 0 0 1 -8.43,7.94l-2.7,0l0,10.66l7.88,0c7.86,0 14.23,-6 14.23,-13.4l0,-26.32c0,-7.38 -6.37,-13.38 -14.23,-13.38z" class="cls-2"/>
  <path id="svg_10" fill="#000000" d="m187.045,126.04501a23.94,23.94 0 1 1 -19.44,-23.52a24.17,24.17 0 0 1 19.44,23.52c0,3.22 5,3.22 5,0a29,29 0 1 0 -0.39,4.65a33,33 0 0 0 0.39,-4.65c0.02,-3.22 -4.98,-3.22 -5,0z" class="cls-1"/>
  <path id="svg_11" fill="#000000" d="m209.395,124.88501c0,0.65 0,1.31 -0.07,2c0,0.34 -0.05,0.69 -0.09,1s-0.17,1.43 -0.08,0.78c-0.21,1.53 -0.5,3 -0.85,4.54a92,92 0 0 1 -3.13,10.43a208.64,208.64 0 0 1 -10.29,23.34c-7.59,15.17 -16.18,29.83 -25,44.29c-2.76,4.5 -5.63,8.95 -8.31,13.51l4.32,0c-2.8,-5.85 -6.12,-11.45 -9.4,-17c-4.34,-7.39 -8.77,-14.72 -13.08,-22.13c-4.53,-7.79 -8.95,-15.65 -13,-23.69a154.41,154.41 0 0 1 -9.66,-22.44a65.26,65.26 0 0 1 -2.42,-9.85c0,-0.22 -0.07,-0.45 -0.1,-0.68c0.07,0.48 0,0.08 0,0l-0.12,-1.11c-0.06,-0.75 -0.11,-1.5 -0.13,-2.26a44.71,44.71 0 0 1 0.35,-6.64a45.54,45.54 0 0 1 10.25,-23.38a45.71,45.71 0 0 1 80.31,22.69a45.61,45.61 0 0 1 0.46,6.61c0,3.21 5,3.22 5,0a50.68,50.68 0 0 0 -83.1,-38.92c-13.72,11.34 -20.87,30.1 -17.23,47.62c1.62,7.78 4.68,15.25 8,22.46c3.86,8.47 8.28,16.69 12.85,24.79c8.14,14.4 17.24,28.3 24.91,43c0.62,1.17 1.22,2.36 1.79,3.55c0.83,1.74 3.42,1.52 4.32,0c6.21,-10.55 12.87,-20.83 19,-31.42c9,-15.6 17.8,-31.59 24.21,-48.47c2.71,-7.14 5.29,-14.84 5.32,-22.56c-0.02,-3.28 -5.02,-3.29 -5.03,-0.06z" class="cls-1"/>
 </g>
</svg>