<svg width="123" height="28" viewBox="0 0 123 28" fill="none" xmlns="http://www.w3.org/2000/svg">
<rect x="0.25" y="0.25" width="27.5" height="27.5" rx="5.75" fill="white"/>
<rect x="0.25" y="0.25" width="27.5" height="27.5" rx="5.75" stroke="#E5E5E5" stroke-width="0.5"/>
<g clip-path="url(#clip0_1_12)">
<path d="M16.7879 11.5758L14 6L6 22H11.8127L16.7879 11.5758Z" fill="black"/>
<path d="M19.119 16.2381L16.3691 22H22L19.119 16.2381Z" fill="black"/>
</g>
<path d="M39.6719 11.4929C39.6188 11.0223 39.4001 10.6577 39.0156 10.3991C38.6312 10.1373 38.1473 10.0064 37.5639 10.0064C37.1463 10.0064 36.785 10.0727 36.4801 10.2053C36.1752 10.3345 35.9382 10.5135 35.7692 10.7422C35.6035 10.9676 35.5206 11.2244 35.5206 11.5128C35.5206 11.7547 35.5769 11.9635 35.6896 12.1392C35.8056 12.3149 35.9564 12.4624 36.142 12.5817C36.331 12.6977 36.5331 12.7955 36.7486 12.875C36.964 12.9512 37.1712 13.0142 37.37 13.0639L38.3643 13.3224C38.6892 13.402 39.0223 13.5097 39.3636 13.6456C39.705 13.7815 40.0215 13.9605 40.3132 14.1825C40.6049 14.4046 40.8402 14.6797 41.0192 15.0078C41.2015 15.3359 41.2926 15.7287 41.2926 16.1861C41.2926 16.7628 41.1435 17.2749 40.8452 17.7223C40.5502 18.1697 40.121 18.5227 39.5575 18.7812C38.9974 19.0398 38.3196 19.169 37.5241 19.169C36.7618 19.169 36.1023 19.0481 35.5455 18.8061C34.9886 18.5642 34.5528 18.2211 34.2379 17.777C33.9231 17.3295 33.7491 16.7992 33.7159 16.1861H35.2571C35.2869 16.554 35.4063 16.8606 35.6151 17.1058C35.8272 17.3478 36.0973 17.5284 36.4254 17.6477C36.7569 17.7637 37.1198 17.8217 37.5142 17.8217C37.9484 17.8217 38.3345 17.7538 38.6726 17.6179C39.014 17.4787 39.2824 17.2865 39.478 17.0412C39.6735 16.7926 39.7713 16.5026 39.7713 16.1712C39.7713 15.8696 39.6851 15.6226 39.5128 15.4304C39.3438 15.2382 39.1134 15.0791 38.8217 14.9531C38.5334 14.8272 38.2069 14.7161 37.8423 14.62L36.6392 14.2919C35.8239 14.0698 35.1776 13.7434 34.7003 13.3125C34.2263 12.8816 33.9893 12.3116 33.9893 11.6023C33.9893 11.0156 34.1484 10.5036 34.4666 10.0661C34.7848 9.62855 35.2157 9.28883 35.7592 9.04688C36.3028 8.80161 36.916 8.67898 37.5987 8.67898C38.2881 8.67898 38.8963 8.79995 39.4233 9.0419C39.9536 9.28385 40.3712 9.61695 40.6761 10.0412C40.9811 10.4621 41.1402 10.946 41.1534 11.4929H39.6719ZM43.1284 19V8.81818H46.7576C47.5498 8.81818 48.206 8.96236 48.7264 9.25071C49.2467 9.53906 49.6362 9.93347 49.8947 10.4339C50.1532 10.9311 50.2825 11.4912 50.2825 12.1143C50.2825 12.7408 50.1516 13.3042 49.8897 13.8047C49.6312 14.3018 49.2401 14.6963 48.7164 14.9879C48.1961 15.2763 47.5415 15.4205 46.7527 15.4205H44.2569V14.1179H46.6135C47.1139 14.1179 47.5199 14.0317 47.8315 13.8594C48.1431 13.6837 48.3717 13.4451 48.5176 13.1435C48.6634 12.8419 48.7363 12.4988 48.7363 12.1143C48.7363 11.7299 48.6634 11.3885 48.5176 11.0902C48.3717 10.7919 48.1414 10.5582 47.8265 10.3892C47.515 10.2202 47.104 10.1357 46.5936 10.1357H44.6646V19H43.1284ZM60.9279 13.9091C60.9279 14.9962 60.729 15.9309 60.3313 16.7131C59.9336 17.492 59.3884 18.0919 58.6957 18.5128C58.0063 18.9304 57.2224 19.1392 56.3441 19.1392C55.4625 19.1392 54.6753 18.9304 53.9826 18.5128C53.2932 18.0919 52.7496 17.4903 52.3519 16.7081C51.9542 15.9259 51.7553 14.9929 51.7553 13.9091C51.7553 12.822 51.9542 11.889 52.3519 11.1101C52.7496 10.3279 53.2932 9.72798 53.9826 9.31037C54.6753 8.88944 55.4625 8.67898 56.3441 8.67898C57.2224 8.67898 58.0063 8.88944 58.6957 9.31037C59.3884 9.72798 59.9336 10.3279 60.3313 11.1101C60.729 11.889 60.9279 12.822 60.9279 13.9091ZM59.4066 13.9091C59.4066 13.0805 59.2724 12.3828 59.0039 11.8161C58.7388 11.246 58.3742 10.8151 57.9102 10.5234C57.4495 10.2285 56.9274 10.081 56.3441 10.081C55.7575 10.081 55.2338 10.2285 54.7731 10.5234C54.3124 10.8151 53.9478 11.246 53.6793 11.8161C53.4142 12.3828 53.2816 13.0805 53.2816 13.9091C53.2816 14.7377 53.4142 15.437 53.6793 16.0071C53.9478 16.5739 54.3124 17.0047 54.7731 17.2997C55.2338 17.5914 55.7575 17.7372 56.3441 17.7372C56.9274 17.7372 57.4495 17.5914 57.9102 17.2997C58.3742 17.0047 58.7388 16.5739 59.0039 16.0071C59.2724 15.437 59.4066 14.7377 59.4066 13.9091ZM62.8432 19V8.81818H66.4725C67.2613 8.81818 67.9159 8.95407 68.4363 9.22585C68.9599 9.49763 69.351 9.87382 69.6096 10.3544C69.8681 10.8317 69.9973 11.3835 69.9973 12.0099C69.9973 12.633 69.8664 13.1816 69.6046 13.6555C69.3461 14.1262 68.955 14.4924 68.4313 14.7543C67.9109 15.0161 67.2563 15.147 66.4675 15.147H63.7182V13.8246H66.3283C66.8255 13.8246 67.2298 13.7533 67.5414 13.6108C67.8562 13.4683 68.0866 13.2611 68.2324 12.9893C68.3783 12.7176 68.4512 12.3911 68.4512 12.0099C68.4512 11.6255 68.3766 11.2924 68.2275 11.0107C68.0816 10.7289 67.8513 10.5135 67.5364 10.3643C67.2248 10.2119 66.8155 10.1357 66.3084 10.1357H64.3794V19H62.8432ZM67.8695 14.4062L70.3851 19H68.6351L66.1692 14.4062H67.8695ZM71.3645 10.1406V8.81818H79.2445V10.1406H76.0676V19H74.5364V10.1406H71.3645ZM90.2441 11.4929C90.1911 11.0223 89.9724 10.6577 89.5879 10.3991C89.2034 10.1373 88.7195 10.0064 88.1362 10.0064C87.7186 10.0064 87.3573 10.0727 87.0524 10.2053C86.7475 10.3345 86.5105 10.5135 86.3414 10.7422C86.1757 10.9676 86.0929 11.2244 86.0929 11.5128C86.0929 11.7547 86.1492 11.9635 86.2619 12.1392C86.3779 12.3149 86.5287 12.4624 86.7143 12.5817C86.9032 12.6977 87.1054 12.7955 87.3208 12.875C87.5363 12.9512 87.7434 13.0142 87.9423 13.0639L88.9366 13.3224C89.2614 13.402 89.5945 13.5097 89.9359 13.6456C90.2773 13.7815 90.5938 13.9605 90.8855 14.1825C91.1771 14.4046 91.4125 14.6797 91.5914 15.0078C91.7737 15.3359 91.8649 15.7287 91.8649 16.1861C91.8649 16.7628 91.7157 17.2749 91.4174 17.7223C91.1225 18.1697 90.6932 18.5227 90.1298 18.7812C89.5697 19.0398 88.8919 19.169 88.0964 19.169C87.3341 19.169 86.6745 19.0481 86.1177 18.8061C85.5609 18.5642 85.1251 18.2211 84.8102 17.777C84.4953 17.3295 84.3213 16.7992 84.2882 16.1861H85.8294C85.8592 16.554 85.9785 16.8606 86.1873 17.1058C86.3994 17.3478 86.6696 17.5284 86.9977 17.6477C87.3291 17.7637 87.6921 17.8217 88.0865 17.8217C88.5207 17.8217 88.9068 17.7538 89.2449 17.6179C89.5862 17.4787 89.8547 17.2865 90.0502 17.0412C90.2458 16.7926 90.3436 16.5026 90.3436 16.1712C90.3436 15.8696 90.2574 15.6226 90.085 15.4304C89.916 15.2382 89.6857 15.0791 89.394 14.9531C89.1056 14.8272 88.7792 14.7161 88.4146 14.62L87.2115 14.2919C86.3961 14.0698 85.7498 13.7434 85.2725 13.3125C84.7986 12.8816 84.5616 12.3116 84.5616 11.6023C84.5616 11.0156 84.7207 10.5036 85.0389 10.0661C85.3571 9.62855 85.7879 9.28883 86.3315 9.04688C86.8751 8.80161 87.4882 8.67898 88.171 8.67898C88.8604 8.67898 89.4686 8.79995 89.9956 9.0419C90.5259 9.28385 90.9435 9.61695 91.2484 10.0412C91.5533 10.4621 91.7124 10.946 91.7257 11.4929H90.2441ZM93.7006 19V8.81818H95.2369V13.2429H100.313V8.81818H101.854V19H100.313V14.5604H95.2369V19H93.7006ZM112.936 13.9091C112.936 14.9962 112.737 15.9309 112.339 16.7131C111.941 17.492 111.396 18.0919 110.703 18.5128C110.014 18.9304 109.23 19.1392 108.352 19.1392C107.47 19.1392 106.683 18.9304 105.99 18.5128C105.301 18.0919 104.757 17.4903 104.36 16.7081C103.962 15.9259 103.763 14.9929 103.763 13.9091C103.763 12.822 103.962 11.889 104.36 11.1101C104.757 10.3279 105.301 9.72798 105.99 9.31037C106.683 8.88944 107.47 8.67898 108.352 8.67898C109.23 8.67898 110.014 8.88944 110.703 9.31037C111.396 9.72798 111.941 10.3279 112.339 11.1101C112.737 11.889 112.936 12.822 112.936 13.9091ZM111.414 13.9091C111.414 13.0805 111.28 12.3828 111.012 11.8161C110.747 11.246 110.382 10.8151 109.918 10.5234C109.457 10.2285 108.935 10.081 108.352 10.081C107.765 10.081 107.242 10.2285 106.781 10.5234C106.32 10.8151 105.956 11.246 105.687 11.8161C105.422 12.3828 105.289 13.0805 105.289 13.9091C105.289 14.7377 105.422 15.437 105.687 16.0071C105.956 16.5739 106.32 17.0047 106.781 17.2997C107.242 17.5914 107.765 17.7372 108.352 17.7372C108.935 17.7372 109.457 17.5914 109.918 17.2997C110.382 17.0047 110.747 16.5739 111.012 16.0071C111.28 15.437 111.414 14.7377 111.414 13.9091ZM114.851 19V8.81818H118.48C119.272 8.81818 119.929 8.96236 120.449 9.25071C120.969 9.53906 121.359 9.93347 121.617 10.4339C121.876 10.9311 122.005 11.4912 122.005 12.1143C122.005 12.7408 121.874 13.3042 121.612 13.8047C121.354 14.3018 120.963 14.6963 120.439 14.9879C119.919 15.2763 119.264 15.4205 118.475 15.4205H115.98V14.1179H118.336C118.837 14.1179 119.243 14.0317 119.554 13.8594C119.866 13.6837 120.094 13.4451 120.24 13.1435C120.386 12.8419 120.459 12.4988 120.459 12.1143C120.459 11.7299 120.386 11.3885 120.24 11.0902C120.094 10.7919 119.864 10.5582 119.549 10.3892C119.238 10.2202 118.827 10.1357 118.316 10.1357H116.387V19H114.851Z" fill="black"/>
<defs>
<clipPath id="clip0_1_12">
<rect width="16" height="16" fill="white" transform="translate(6 6)"/>
</clipPath>
</defs>
</svg>
